<mxfile host="app.diagrams.net" agent="Mozilla/5.0 (Windows NT 10.0; Win64; x64) AppleWebKit/537.36 (KHTML, like Gecko) Chrome/134.0.0.0 Safari/537.36" version="26.1.1">
  <diagram name="Page-1" id="2YBvvXClWsGukQMizWep">
    <mxGraphModel dx="1723" dy="708" grid="1" gridSize="10" guides="1" tooltips="1" connect="1" arrows="1" fold="1" page="1" pageScale="1" pageWidth="850" pageHeight="1100" math="0" shadow="0">
      <root>
        <mxCell id="0" />
        <mxCell id="1" parent="0" />
        <mxCell id="WATYZbPXumTt0jwoAOc6-1" value="" style="shape=umlLifeline;perimeter=lifelinePerimeter;whiteSpace=wrap;html=1;container=1;dropTarget=0;collapsible=0;recursiveResize=0;outlineConnect=0;portConstraint=eastwest;newEdgeStyle={&quot;curved&quot;:0,&quot;rounded&quot;:0};participant=umlActor;" parent="1" vertex="1">
          <mxGeometry x="60" y="50" width="20" height="720" as="geometry" />
        </mxCell>
        <mxCell id="WATYZbPXumTt0jwoAOc6-2" value="FollowRepository" style="shape=umlLifeline;perimeter=lifelinePerimeter;whiteSpace=wrap;html=1;container=1;dropTarget=0;collapsible=0;recursiveResize=0;outlineConnect=0;portConstraint=eastwest;newEdgeStyle={&quot;curved&quot;:0,&quot;rounded&quot;:0};" parent="1" vertex="1">
          <mxGeometry x="220" y="50" width="100" height="720" as="geometry" />
        </mxCell>
        <mxCell id="WATYZbPXumTt0jwoAOc6-32" value="" style="html=1;points=[[0,0,0,0,5],[0,1,0,0,-5],[1,0,0,0,5],[1,1,0,0,-5]];perimeter=orthogonalPerimeter;outlineConnect=0;targetShapes=umlLifeline;portConstraint=eastwest;newEdgeStyle={&quot;curved&quot;:0,&quot;rounded&quot;:0};" parent="WATYZbPXumTt0jwoAOc6-2" vertex="1">
          <mxGeometry x="45" y="70" width="10" height="640" as="geometry" />
        </mxCell>
        <mxCell id="WATYZbPXumTt0jwoAOc6-3" value="PostgresBase" style="shape=umlLifeline;perimeter=lifelinePerimeter;whiteSpace=wrap;html=1;container=1;dropTarget=0;collapsible=0;recursiveResize=0;outlineConnect=0;portConstraint=eastwest;newEdgeStyle={&quot;curved&quot;:0,&quot;rounded&quot;:0};" parent="1" vertex="1">
          <mxGeometry x="480" y="50" width="100" height="710" as="geometry" />
        </mxCell>
        <mxCell id="WATYZbPXumTt0jwoAOc6-33" value="" style="html=1;points=[[0,0,0,0,5],[0,1,0,0,-5],[1,0,0,0,5],[1,1,0,0,-5]];perimeter=orthogonalPerimeter;outlineConnect=0;targetShapes=umlLifeline;portConstraint=eastwest;newEdgeStyle={&quot;curved&quot;:0,&quot;rounded&quot;:0};" parent="WATYZbPXumTt0jwoAOc6-3" vertex="1">
          <mxGeometry x="45" y="70" width="10" height="630" as="geometry" />
        </mxCell>
        <mxCell id="WATYZbPXumTt0jwoAOc6-4" value="Base" style="shape=umlLifeline;perimeter=lifelinePerimeter;whiteSpace=wrap;html=1;container=1;dropTarget=0;collapsible=0;recursiveResize=0;outlineConnect=0;portConstraint=eastwest;newEdgeStyle={&quot;curved&quot;:0,&quot;rounded&quot;:0};" parent="1" vertex="1">
          <mxGeometry x="660" y="50" width="100" height="710" as="geometry" />
        </mxCell>
        <mxCell id="WATYZbPXumTt0jwoAOc6-34" value="" style="html=1;points=[[0,0,0,0,5],[0,1,0,0,-5],[1,0,0,0,5],[1,1,0,0,-5]];perimeter=orthogonalPerimeter;outlineConnect=0;targetShapes=umlLifeline;portConstraint=eastwest;newEdgeStyle={&quot;curved&quot;:0,&quot;rounded&quot;:0};" parent="WATYZbPXumTt0jwoAOc6-4" vertex="1">
          <mxGeometry x="45" y="70" width="10" height="230" as="geometry" />
        </mxCell>
        <mxCell id="WATYZbPXumTt0jwoAOc6-5" value="DatabaseFactory" style="shape=umlLifeline;perimeter=lifelinePerimeter;whiteSpace=wrap;html=1;container=1;dropTarget=0;collapsible=0;recursiveResize=0;outlineConnect=0;portConstraint=eastwest;newEdgeStyle={&quot;curved&quot;:0,&quot;rounded&quot;:0};" parent="1" vertex="1">
          <mxGeometry x="820" y="50" width="100" height="720" as="geometry" />
        </mxCell>
        <mxCell id="WATYZbPXumTt0jwoAOc6-35" value="" style="html=1;points=[[0,0,0,0,5],[0,1,0,0,-5],[1,0,0,0,5],[1,1,0,0,-5]];perimeter=orthogonalPerimeter;outlineConnect=0;targetShapes=umlLifeline;portConstraint=eastwest;newEdgeStyle={&quot;curved&quot;:0,&quot;rounded&quot;:0};" parent="WATYZbPXumTt0jwoAOc6-5" vertex="1">
          <mxGeometry x="45" y="100" width="10" height="160" as="geometry" />
        </mxCell>
        <mxCell id="WATYZbPXumTt0jwoAOc6-6" value="PostgresConfig" style="shape=umlLifeline;perimeter=lifelinePerimeter;whiteSpace=wrap;html=1;container=1;dropTarget=0;collapsible=0;recursiveResize=0;outlineConnect=0;portConstraint=eastwest;newEdgeStyle={&quot;curved&quot;:0,&quot;rounded&quot;:0};" parent="1" vertex="1">
          <mxGeometry x="1120" y="50" width="100" height="720" as="geometry" />
        </mxCell>
        <mxCell id="WATYZbPXumTt0jwoAOc6-7" value="Database" style="shape=umlLifeline;perimeter=lifelinePerimeter;whiteSpace=wrap;html=1;container=1;dropTarget=0;collapsible=0;recursiveResize=0;outlineConnect=0;portConstraint=eastwest;newEdgeStyle={&quot;curved&quot;:0,&quot;rounded&quot;:0};" parent="1" vertex="1">
          <mxGeometry x="1250" y="50" width="100" height="720" as="geometry" />
        </mxCell>
        <mxCell id="WATYZbPXumTt0jwoAOc6-39" value="" style="html=1;points=[[0,0,0,0,5],[0,1,0,0,-5],[1,0,0,0,5],[1,1,0,0,-5]];perimeter=orthogonalPerimeter;outlineConnect=0;targetShapes=umlLifeline;portConstraint=eastwest;newEdgeStyle={&quot;curved&quot;:0,&quot;rounded&quot;:0};" parent="WATYZbPXumTt0jwoAOc6-7" vertex="1">
          <mxGeometry x="50" y="180" width="10" height="520" as="geometry" />
        </mxCell>
        <mxCell id="WATYZbPXumTt0jwoAOc6-8" value="addFollower(followerId, followeeId)" style="html=1;verticalAlign=bottom;endArrow=block;curved=0;rounded=0;" parent="1" edge="1">
          <mxGeometry width="80" relative="1" as="geometry">
            <mxPoint x="69.66666666666674" y="120" as="sourcePoint" />
            <mxPoint x="269.5000000000002" y="120" as="targetPoint" />
          </mxGeometry>
        </mxCell>
        <mxCell id="WATYZbPXumTt0jwoAOc6-9" value="getRepository(Follows)" style="html=1;verticalAlign=bottom;endArrow=block;curved=0;rounded=0;" parent="1" edge="1">
          <mxGeometry width="80" relative="1" as="geometry">
            <mxPoint x="270" y="130" as="sourcePoint" />
            <mxPoint x="529.5000000000002" y="130" as="targetPoint" />
          </mxGeometry>
        </mxCell>
        <mxCell id="WATYZbPXumTt0jwoAOc6-10" value="getConnection(DbType)" style="html=1;verticalAlign=bottom;endArrow=block;curved=0;rounded=0;" parent="1" edge="1">
          <mxGeometry width="80" relative="1" as="geometry">
            <mxPoint x="530" y="140" as="sourcePoint" />
            <mxPoint x="709.5" y="140" as="targetPoint" />
          </mxGeometry>
        </mxCell>
        <mxCell id="WATYZbPXumTt0jwoAOc6-11" value="getConnection(dbType)" style="html=1;verticalAlign=bottom;endArrow=block;curved=0;rounded=0;" parent="1" edge="1">
          <mxGeometry width="80" relative="1" as="geometry">
            <mxPoint x="710" y="160" as="sourcePoint" />
            <mxPoint x="869.5" y="160" as="targetPoint" />
          </mxGeometry>
        </mxCell>
        <mxCell id="WATYZbPXumTt0jwoAOc6-12" value="PostgresConnection" style="shape=umlLifeline;perimeter=lifelinePerimeter;whiteSpace=wrap;html=1;container=1;dropTarget=0;collapsible=0;recursiveResize=0;outlineConnect=0;portConstraint=eastwest;newEdgeStyle={&quot;curved&quot;:0,&quot;rounded&quot;:0};" parent="1" vertex="1">
          <mxGeometry x="990" y="50" width="110" height="720" as="geometry" />
        </mxCell>
        <mxCell id="WATYZbPXumTt0jwoAOc6-36" value="" style="html=1;points=[[0,0,0,0,5],[0,1,0,0,-5],[1,0,0,0,5],[1,1,0,0,-5]];perimeter=orthogonalPerimeter;outlineConnect=0;targetShapes=umlLifeline;portConstraint=eastwest;newEdgeStyle={&quot;curved&quot;:0,&quot;rounded&quot;:0};" parent="WATYZbPXumTt0jwoAOc6-12" vertex="1">
          <mxGeometry x="50" y="120" width="10" height="120" as="geometry" />
        </mxCell>
        <mxCell id="WATYZbPXumTt0jwoAOc6-14" value="PostgresConnection.Instance" style="html=1;verticalAlign=bottom;endArrow=block;curved=0;rounded=0;" parent="1" target="WATYZbPXumTt0jwoAOc6-12" edge="1">
          <mxGeometry width="80" relative="1" as="geometry">
            <mxPoint x="870" y="180" as="sourcePoint" />
            <mxPoint x="950" y="180" as="targetPoint" />
          </mxGeometry>
        </mxCell>
        <mxCell id="WATYZbPXumTt0jwoAOc6-15" value="dbDonfig()" style="html=1;verticalAlign=bottom;endArrow=block;curved=0;rounded=0;" parent="1" edge="1">
          <mxGeometry width="80" relative="1" as="geometry">
            <mxPoint x="1044.5909090909095" y="199.55" as="sourcePoint" />
            <mxPoint x="1169.5" y="199.55" as="targetPoint" />
          </mxGeometry>
        </mxCell>
        <mxCell id="WATYZbPXumTt0jwoAOc6-16" value="connect to Postgress database" style="html=1;verticalAlign=bottom;endArrow=block;curved=0;rounded=0;" parent="1" target="WATYZbPXumTt0jwoAOc6-7" edge="1">
          <mxGeometry width="80" relative="1" as="geometry">
            <mxPoint x="1050" y="230" as="sourcePoint" />
            <mxPoint x="1130" y="230" as="targetPoint" />
          </mxGeometry>
        </mxCell>
        <mxCell id="WATYZbPXumTt0jwoAOc6-17" value="connection successful" style="html=1;verticalAlign=bottom;endArrow=open;dashed=1;endSize=8;curved=0;rounded=0;" parent="1" edge="1">
          <mxGeometry relative="1" as="geometry">
            <mxPoint x="1300" y="260" as="sourcePoint" />
            <mxPoint x="1044.5909090909095" y="260" as="targetPoint" />
          </mxGeometry>
        </mxCell>
        <mxCell id="WATYZbPXumTt0jwoAOc6-18" value="Postgress Connection" style="html=1;verticalAlign=bottom;endArrow=open;dashed=1;endSize=8;curved=0;rounded=0;" parent="1" target="WATYZbPXumTt0jwoAOc6-5" edge="1">
          <mxGeometry relative="1" as="geometry">
            <mxPoint x="1040" y="280" as="sourcePoint" />
            <mxPoint x="960" y="280" as="targetPoint" />
          </mxGeometry>
        </mxCell>
        <mxCell id="WATYZbPXumTt0jwoAOc6-19" value="Postgress Connection" style="html=1;verticalAlign=bottom;endArrow=open;dashed=1;endSize=8;curved=0;rounded=0;" parent="1" target="WATYZbPXumTt0jwoAOc6-4" edge="1">
          <mxGeometry relative="1" as="geometry">
            <mxPoint x="870" y="310" as="sourcePoint" />
            <mxPoint x="790" y="310" as="targetPoint" />
          </mxGeometry>
        </mxCell>
        <mxCell id="WATYZbPXumTt0jwoAOc6-21" value="Postgress Connection" style="html=1;verticalAlign=bottom;endArrow=open;dashed=1;endSize=8;curved=0;rounded=0;" parent="1" edge="1">
          <mxGeometry relative="1" as="geometry">
            <mxPoint x="709.5" y="330" as="sourcePoint" />
            <mxPoint x="529.5909090909095" y="330" as="targetPoint" />
          </mxGeometry>
        </mxCell>
        <mxCell id="WATYZbPXumTt0jwoAOc6-22" value="repository" style="html=1;verticalAlign=bottom;endArrow=open;dashed=1;endSize=8;curved=0;rounded=0;" parent="1" target="WATYZbPXumTt0jwoAOc6-2" edge="1">
          <mxGeometry relative="1" as="geometry">
            <mxPoint x="530" y="360" as="sourcePoint" />
            <mxPoint x="450" y="360" as="targetPoint" />
          </mxGeometry>
        </mxCell>
        <mxCell id="WATYZbPXumTt0jwoAOc6-25" value="create(followerId, followeeId)" style="html=1;verticalAlign=bottom;endArrow=block;curved=0;rounded=0;" parent="1" target="WATYZbPXumTt0jwoAOc6-3" edge="1">
          <mxGeometry width="80" relative="1" as="geometry">
            <mxPoint x="270" y="410" as="sourcePoint" />
            <mxPoint x="350" y="410" as="targetPoint" />
          </mxGeometry>
        </mxCell>
        <mxCell id="WATYZbPXumTt0jwoAOc6-26" value="save()" style="html=1;verticalAlign=bottom;endArrow=block;curved=0;rounded=0;" parent="1" target="WATYZbPXumTt0jwoAOc6-3" edge="1">
          <mxGeometry width="80" relative="1" as="geometry">
            <mxPoint x="270" y="450" as="sourcePoint" />
            <mxPoint x="350" y="450" as="targetPoint" />
          </mxGeometry>
        </mxCell>
        <mxCell id="WATYZbPXumTt0jwoAOc6-27" value="save into database" style="html=1;verticalAlign=bottom;endArrow=block;curved=0;rounded=0;" parent="1" target="WATYZbPXumTt0jwoAOc6-7" edge="1">
          <mxGeometry x="0.0916" width="80" relative="1" as="geometry">
            <mxPoint x="530" y="480" as="sourcePoint" />
            <mxPoint x="610" y="480" as="targetPoint" />
            <mxPoint as="offset" />
          </mxGeometry>
        </mxCell>
        <mxCell id="WATYZbPXumTt0jwoAOc6-29" value="saved successfully" style="html=1;verticalAlign=bottom;endArrow=open;dashed=1;endSize=8;curved=0;rounded=0;" parent="1" target="WATYZbPXumTt0jwoAOc6-3" edge="1">
          <mxGeometry x="-0.0655" relative="1" as="geometry">
            <mxPoint x="1300" y="520" as="sourcePoint" />
            <mxPoint x="1220" y="520" as="targetPoint" />
            <mxPoint as="offset" />
          </mxGeometry>
        </mxCell>
        <mxCell id="WATYZbPXumTt0jwoAOc6-72" value="" style="shape=umlLifeline;perimeter=lifelinePerimeter;whiteSpace=wrap;html=1;container=1;dropTarget=0;collapsible=0;recursiveResize=0;outlineConnect=0;portConstraint=eastwest;newEdgeStyle={&quot;curved&quot;:0,&quot;rounded&quot;:0};participant=umlActor;" parent="1" vertex="1">
          <mxGeometry x="65" y="830" width="20" height="610" as="geometry" />
        </mxCell>
        <mxCell id="WATYZbPXumTt0jwoAOc6-73" value="FollowRepository" style="shape=umlLifeline;perimeter=lifelinePerimeter;whiteSpace=wrap;html=1;container=1;dropTarget=0;collapsible=0;recursiveResize=0;outlineConnect=0;portConstraint=eastwest;newEdgeStyle={&quot;curved&quot;:0,&quot;rounded&quot;:0};" parent="1" vertex="1">
          <mxGeometry x="225" y="830" width="100" height="610" as="geometry" />
        </mxCell>
        <mxCell id="WATYZbPXumTt0jwoAOc6-74" value="" style="html=1;points=[[0,0,0,0,5],[0,1,0,0,-5],[1,0,0,0,5],[1,1,0,0,-5]];perimeter=orthogonalPerimeter;outlineConnect=0;targetShapes=umlLifeline;portConstraint=eastwest;newEdgeStyle={&quot;curved&quot;:0,&quot;rounded&quot;:0};" parent="WATYZbPXumTt0jwoAOc6-73" vertex="1">
          <mxGeometry x="45" y="70" width="10" height="480" as="geometry" />
        </mxCell>
        <mxCell id="WATYZbPXumTt0jwoAOc6-75" value="PostgresBase" style="shape=umlLifeline;perimeter=lifelinePerimeter;whiteSpace=wrap;html=1;container=1;dropTarget=0;collapsible=0;recursiveResize=0;outlineConnect=0;portConstraint=eastwest;newEdgeStyle={&quot;curved&quot;:0,&quot;rounded&quot;:0};" parent="1" vertex="1">
          <mxGeometry x="485" y="830" width="100" height="570" as="geometry" />
        </mxCell>
        <mxCell id="WATYZbPXumTt0jwoAOc6-76" value="" style="html=1;points=[[0,0,0,0,5],[0,1,0,0,-5],[1,0,0,0,5],[1,1,0,0,-5]];perimeter=orthogonalPerimeter;outlineConnect=0;targetShapes=umlLifeline;portConstraint=eastwest;newEdgeStyle={&quot;curved&quot;:0,&quot;rounded&quot;:0};" parent="WATYZbPXumTt0jwoAOc6-75" vertex="1">
          <mxGeometry x="45" y="70" width="10" height="480" as="geometry" />
        </mxCell>
        <mxCell id="WATYZbPXumTt0jwoAOc6-77" value="Base" style="shape=umlLifeline;perimeter=lifelinePerimeter;whiteSpace=wrap;html=1;container=1;dropTarget=0;collapsible=0;recursiveResize=0;outlineConnect=0;portConstraint=eastwest;newEdgeStyle={&quot;curved&quot;:0,&quot;rounded&quot;:0};" parent="1" vertex="1">
          <mxGeometry x="665" y="830" width="100" height="570" as="geometry" />
        </mxCell>
        <mxCell id="WATYZbPXumTt0jwoAOc6-78" value="" style="html=1;points=[[0,0,0,0,5],[0,1,0,0,-5],[1,0,0,0,5],[1,1,0,0,-5]];perimeter=orthogonalPerimeter;outlineConnect=0;targetShapes=umlLifeline;portConstraint=eastwest;newEdgeStyle={&quot;curved&quot;:0,&quot;rounded&quot;:0};" parent="WATYZbPXumTt0jwoAOc6-77" vertex="1">
          <mxGeometry x="45" y="70" width="10" height="230" as="geometry" />
        </mxCell>
        <mxCell id="WATYZbPXumTt0jwoAOc6-79" value="DatabaseFactory" style="shape=umlLifeline;perimeter=lifelinePerimeter;whiteSpace=wrap;html=1;container=1;dropTarget=0;collapsible=0;recursiveResize=0;outlineConnect=0;portConstraint=eastwest;newEdgeStyle={&quot;curved&quot;:0,&quot;rounded&quot;:0};" parent="1" vertex="1">
          <mxGeometry x="825" y="830" width="100" height="550" as="geometry" />
        </mxCell>
        <mxCell id="WATYZbPXumTt0jwoAOc6-80" value="" style="html=1;points=[[0,0,0,0,5],[0,1,0,0,-5],[1,0,0,0,5],[1,1,0,0,-5]];perimeter=orthogonalPerimeter;outlineConnect=0;targetShapes=umlLifeline;portConstraint=eastwest;newEdgeStyle={&quot;curved&quot;:0,&quot;rounded&quot;:0};" parent="WATYZbPXumTt0jwoAOc6-79" vertex="1">
          <mxGeometry x="45" y="100" width="10" height="160" as="geometry" />
        </mxCell>
        <mxCell id="WATYZbPXumTt0jwoAOc6-81" value="PostgresConfig" style="shape=umlLifeline;perimeter=lifelinePerimeter;whiteSpace=wrap;html=1;container=1;dropTarget=0;collapsible=0;recursiveResize=0;outlineConnect=0;portConstraint=eastwest;newEdgeStyle={&quot;curved&quot;:0,&quot;rounded&quot;:0};" parent="1" vertex="1">
          <mxGeometry x="1125" y="830" width="100" height="550" as="geometry" />
        </mxCell>
        <mxCell id="WATYZbPXumTt0jwoAOc6-82" value="Database" style="shape=umlLifeline;perimeter=lifelinePerimeter;whiteSpace=wrap;html=1;container=1;dropTarget=0;collapsible=0;recursiveResize=0;outlineConnect=0;portConstraint=eastwest;newEdgeStyle={&quot;curved&quot;:0,&quot;rounded&quot;:0};" parent="1" vertex="1">
          <mxGeometry x="1255" y="830" width="100" height="540" as="geometry" />
        </mxCell>
        <mxCell id="WATYZbPXumTt0jwoAOc6-83" value="" style="html=1;points=[[0,0,0,0,5],[0,1,0,0,-5],[1,0,0,0,5],[1,1,0,0,-5]];perimeter=orthogonalPerimeter;outlineConnect=0;targetShapes=umlLifeline;portConstraint=eastwest;newEdgeStyle={&quot;curved&quot;:0,&quot;rounded&quot;:0};" parent="WATYZbPXumTt0jwoAOc6-82" vertex="1">
          <mxGeometry x="50" y="180" width="10" height="300" as="geometry" />
        </mxCell>
        <mxCell id="WATYZbPXumTt0jwoAOc6-84" value="deleteFollower(followerId, followeeId)" style="html=1;verticalAlign=bottom;endArrow=block;curved=0;rounded=0;" parent="1" edge="1">
          <mxGeometry width="80" relative="1" as="geometry">
            <mxPoint x="74.66666666666674" y="900" as="sourcePoint" />
            <mxPoint x="274.5000000000002" y="900" as="targetPoint" />
          </mxGeometry>
        </mxCell>
        <mxCell id="WATYZbPXumTt0jwoAOc6-85" value="getRepository(Follows)" style="html=1;verticalAlign=bottom;endArrow=block;curved=0;rounded=0;" parent="1" edge="1">
          <mxGeometry width="80" relative="1" as="geometry">
            <mxPoint x="275" y="910" as="sourcePoint" />
            <mxPoint x="534.5000000000002" y="910" as="targetPoint" />
          </mxGeometry>
        </mxCell>
        <mxCell id="WATYZbPXumTt0jwoAOc6-86" value="getConnection(DbType)" style="html=1;verticalAlign=bottom;endArrow=block;curved=0;rounded=0;" parent="1" edge="1">
          <mxGeometry width="80" relative="1" as="geometry">
            <mxPoint x="535" y="920" as="sourcePoint" />
            <mxPoint x="714.5" y="920" as="targetPoint" />
          </mxGeometry>
        </mxCell>
        <mxCell id="WATYZbPXumTt0jwoAOc6-87" value="getConnection(dbType)" style="html=1;verticalAlign=bottom;endArrow=block;curved=0;rounded=0;" parent="1" edge="1">
          <mxGeometry width="80" relative="1" as="geometry">
            <mxPoint x="715" y="940" as="sourcePoint" />
            <mxPoint x="874.5" y="940" as="targetPoint" />
          </mxGeometry>
        </mxCell>
        <mxCell id="WATYZbPXumTt0jwoAOc6-88" value="PostgresConnection" style="shape=umlLifeline;perimeter=lifelinePerimeter;whiteSpace=wrap;html=1;container=1;dropTarget=0;collapsible=0;recursiveResize=0;outlineConnect=0;portConstraint=eastwest;newEdgeStyle={&quot;curved&quot;:0,&quot;rounded&quot;:0};" parent="1" vertex="1">
          <mxGeometry x="995" y="830" width="110" height="560" as="geometry" />
        </mxCell>
        <mxCell id="WATYZbPXumTt0jwoAOc6-89" value="" style="html=1;points=[[0,0,0,0,5],[0,1,0,0,-5],[1,0,0,0,5],[1,1,0,0,-5]];perimeter=orthogonalPerimeter;outlineConnect=0;targetShapes=umlLifeline;portConstraint=eastwest;newEdgeStyle={&quot;curved&quot;:0,&quot;rounded&quot;:0};" parent="WATYZbPXumTt0jwoAOc6-88" vertex="1">
          <mxGeometry x="50" y="120" width="10" height="120" as="geometry" />
        </mxCell>
        <mxCell id="WATYZbPXumTt0jwoAOc6-90" value="PostgresConnection.Instance" style="html=1;verticalAlign=bottom;endArrow=block;curved=0;rounded=0;" parent="1" target="WATYZbPXumTt0jwoAOc6-88" edge="1">
          <mxGeometry width="80" relative="1" as="geometry">
            <mxPoint x="875" y="960" as="sourcePoint" />
            <mxPoint x="955" y="960" as="targetPoint" />
          </mxGeometry>
        </mxCell>
        <mxCell id="WATYZbPXumTt0jwoAOc6-91" value="dbDonfig()" style="html=1;verticalAlign=bottom;endArrow=block;curved=0;rounded=0;" parent="1" edge="1">
          <mxGeometry width="80" relative="1" as="geometry">
            <mxPoint x="1049.5909090909095" y="979.55" as="sourcePoint" />
            <mxPoint x="1174.5" y="979.55" as="targetPoint" />
          </mxGeometry>
        </mxCell>
        <mxCell id="WATYZbPXumTt0jwoAOc6-92" value="connect to Postgress database" style="html=1;verticalAlign=bottom;endArrow=block;curved=0;rounded=0;" parent="1" target="WATYZbPXumTt0jwoAOc6-82" edge="1">
          <mxGeometry width="80" relative="1" as="geometry">
            <mxPoint x="1055" y="1010" as="sourcePoint" />
            <mxPoint x="1135" y="1010" as="targetPoint" />
          </mxGeometry>
        </mxCell>
        <mxCell id="WATYZbPXumTt0jwoAOc6-93" value="connection successful" style="html=1;verticalAlign=bottom;endArrow=open;dashed=1;endSize=8;curved=0;rounded=0;" parent="1" edge="1">
          <mxGeometry relative="1" as="geometry">
            <mxPoint x="1305" y="1040" as="sourcePoint" />
            <mxPoint x="1049.5909090909095" y="1040" as="targetPoint" />
          </mxGeometry>
        </mxCell>
        <mxCell id="WATYZbPXumTt0jwoAOc6-94" value="Postgress Connection" style="html=1;verticalAlign=bottom;endArrow=open;dashed=1;endSize=8;curved=0;rounded=0;" parent="1" target="WATYZbPXumTt0jwoAOc6-79" edge="1">
          <mxGeometry relative="1" as="geometry">
            <mxPoint x="1045" y="1060" as="sourcePoint" />
            <mxPoint x="965" y="1060" as="targetPoint" />
          </mxGeometry>
        </mxCell>
        <mxCell id="WATYZbPXumTt0jwoAOc6-95" value="Postgress Connection" style="html=1;verticalAlign=bottom;endArrow=open;dashed=1;endSize=8;curved=0;rounded=0;" parent="1" target="WATYZbPXumTt0jwoAOc6-77" edge="1">
          <mxGeometry relative="1" as="geometry">
            <mxPoint x="875" y="1090" as="sourcePoint" />
            <mxPoint x="795" y="1090" as="targetPoint" />
          </mxGeometry>
        </mxCell>
        <mxCell id="WATYZbPXumTt0jwoAOc6-96" value="Postgress Connection" style="html=1;verticalAlign=bottom;endArrow=open;dashed=1;endSize=8;curved=0;rounded=0;" parent="1" edge="1">
          <mxGeometry relative="1" as="geometry">
            <mxPoint x="714.5" y="1110" as="sourcePoint" />
            <mxPoint x="534.5909090909095" y="1110" as="targetPoint" />
          </mxGeometry>
        </mxCell>
        <mxCell id="WATYZbPXumTt0jwoAOc6-97" value="repository" style="html=1;verticalAlign=bottom;endArrow=open;dashed=1;endSize=8;curved=0;rounded=0;" parent="1" target="WATYZbPXumTt0jwoAOc6-73" edge="1">
          <mxGeometry relative="1" as="geometry">
            <mxPoint x="535" y="1140" as="sourcePoint" />
            <mxPoint x="455" y="1140" as="targetPoint" />
          </mxGeometry>
        </mxCell>
        <mxCell id="WATYZbPXumTt0jwoAOc6-98" value="delete(followerId, followeeId)" style="html=1;verticalAlign=bottom;endArrow=block;curved=0;rounded=0;" parent="1" target="WATYZbPXumTt0jwoAOc6-75" edge="1">
          <mxGeometry width="80" relative="1" as="geometry">
            <mxPoint x="275" y="1190" as="sourcePoint" />
            <mxPoint x="355" y="1190" as="targetPoint" />
          </mxGeometry>
        </mxCell>
        <mxCell id="WATYZbPXumTt0jwoAOc6-100" value="delete follower" style="html=1;verticalAlign=bottom;endArrow=block;curved=0;rounded=0;" parent="1" target="WATYZbPXumTt0jwoAOc6-82" edge="1">
          <mxGeometry x="0.0916" width="80" relative="1" as="geometry">
            <mxPoint x="535" y="1260" as="sourcePoint" />
            <mxPoint x="615" y="1260" as="targetPoint" />
            <mxPoint as="offset" />
          </mxGeometry>
        </mxCell>
        <mxCell id="WATYZbPXumTt0jwoAOc6-101" value="delete successfully" style="html=1;verticalAlign=bottom;endArrow=open;dashed=1;endSize=8;curved=0;rounded=0;" parent="1" target="WATYZbPXumTt0jwoAOc6-75" edge="1">
          <mxGeometry x="-0.0655" relative="1" as="geometry">
            <mxPoint x="1305" y="1300" as="sourcePoint" />
            <mxPoint x="1225" y="1300" as="targetPoint" />
            <mxPoint as="offset" />
          </mxGeometry>
        </mxCell>
        <mxCell id="WATYZbPXumTt0jwoAOc6-102" value="success" style="html=1;verticalAlign=bottom;endArrow=open;dashed=1;endSize=8;curved=0;rounded=0;" parent="1" target="WATYZbPXumTt0jwoAOc6-73" edge="1">
          <mxGeometry relative="1" as="geometry">
            <mxPoint x="535" y="1330" as="sourcePoint" />
            <mxPoint x="455" y="1330" as="targetPoint" />
          </mxGeometry>
        </mxCell>
        <mxCell id="WATYZbPXumTt0jwoAOc6-103" value="follower deleted" style="html=1;verticalAlign=bottom;endArrow=open;dashed=1;endSize=8;curved=0;rounded=0;" parent="1" target="WATYZbPXumTt0jwoAOc6-72" edge="1">
          <mxGeometry relative="1" as="geometry">
            <mxPoint x="275" y="1370" as="sourcePoint" />
            <mxPoint x="195" y="1370" as="targetPoint" />
          </mxGeometry>
        </mxCell>
        <mxCell id="WATYZbPXumTt0jwoAOc6-105" value="" style="shape=umlLifeline;perimeter=lifelinePerimeter;whiteSpace=wrap;html=1;container=1;dropTarget=0;collapsible=0;recursiveResize=0;outlineConnect=0;portConstraint=eastwest;newEdgeStyle={&quot;curved&quot;:0,&quot;rounded&quot;:0};participant=umlActor;" parent="1" vertex="1">
          <mxGeometry x="10" y="1520" width="20" height="640" as="geometry" />
        </mxCell>
        <mxCell id="WATYZbPXumTt0jwoAOc6-106" value="FollowRepository" style="shape=umlLifeline;perimeter=lifelinePerimeter;whiteSpace=wrap;html=1;container=1;dropTarget=0;collapsible=0;recursiveResize=0;outlineConnect=0;portConstraint=eastwest;newEdgeStyle={&quot;curved&quot;:0,&quot;rounded&quot;:0};" parent="1" vertex="1">
          <mxGeometry x="240" y="1530" width="100" height="640" as="geometry" />
        </mxCell>
        <mxCell id="WATYZbPXumTt0jwoAOc6-107" value="" style="html=1;points=[[0,0,0,0,5],[0,1,0,0,-5],[1,0,0,0,5],[1,1,0,0,-5]];perimeter=orthogonalPerimeter;outlineConnect=0;targetShapes=umlLifeline;portConstraint=eastwest;newEdgeStyle={&quot;curved&quot;:0,&quot;rounded&quot;:0};" parent="WATYZbPXumTt0jwoAOc6-106" vertex="1">
          <mxGeometry x="45" y="70" width="10" height="530" as="geometry" />
        </mxCell>
        <mxCell id="WATYZbPXumTt0jwoAOc6-108" value="PostgresBase" style="shape=umlLifeline;perimeter=lifelinePerimeter;whiteSpace=wrap;html=1;container=1;dropTarget=0;collapsible=0;recursiveResize=0;outlineConnect=0;portConstraint=eastwest;newEdgeStyle={&quot;curved&quot;:0,&quot;rounded&quot;:0};" parent="1" vertex="1">
          <mxGeometry x="500" y="1530" width="100" height="630" as="geometry" />
        </mxCell>
        <mxCell id="WATYZbPXumTt0jwoAOc6-109" value="" style="html=1;points=[[0,0,0,0,5],[0,1,0,0,-5],[1,0,0,0,5],[1,1,0,0,-5]];perimeter=orthogonalPerimeter;outlineConnect=0;targetShapes=umlLifeline;portConstraint=eastwest;newEdgeStyle={&quot;curved&quot;:0,&quot;rounded&quot;:0};" parent="WATYZbPXumTt0jwoAOc6-108" vertex="1">
          <mxGeometry x="45" y="70" width="10" height="500" as="geometry" />
        </mxCell>
        <mxCell id="WATYZbPXumTt0jwoAOc6-110" value="Base" style="shape=umlLifeline;perimeter=lifelinePerimeter;whiteSpace=wrap;html=1;container=1;dropTarget=0;collapsible=0;recursiveResize=0;outlineConnect=0;portConstraint=eastwest;newEdgeStyle={&quot;curved&quot;:0,&quot;rounded&quot;:0};" parent="1" vertex="1">
          <mxGeometry x="680" y="1530" width="100" height="570" as="geometry" />
        </mxCell>
        <mxCell id="WATYZbPXumTt0jwoAOc6-111" value="" style="html=1;points=[[0,0,0,0,5],[0,1,0,0,-5],[1,0,0,0,5],[1,1,0,0,-5]];perimeter=orthogonalPerimeter;outlineConnect=0;targetShapes=umlLifeline;portConstraint=eastwest;newEdgeStyle={&quot;curved&quot;:0,&quot;rounded&quot;:0};" parent="WATYZbPXumTt0jwoAOc6-110" vertex="1">
          <mxGeometry x="45" y="70" width="10" height="230" as="geometry" />
        </mxCell>
        <mxCell id="WATYZbPXumTt0jwoAOc6-112" value="DatabaseFactory" style="shape=umlLifeline;perimeter=lifelinePerimeter;whiteSpace=wrap;html=1;container=1;dropTarget=0;collapsible=0;recursiveResize=0;outlineConnect=0;portConstraint=eastwest;newEdgeStyle={&quot;curved&quot;:0,&quot;rounded&quot;:0};" parent="1" vertex="1">
          <mxGeometry x="840" y="1530" width="100" height="550" as="geometry" />
        </mxCell>
        <mxCell id="WATYZbPXumTt0jwoAOc6-113" value="" style="html=1;points=[[0,0,0,0,5],[0,1,0,0,-5],[1,0,0,0,5],[1,1,0,0,-5]];perimeter=orthogonalPerimeter;outlineConnect=0;targetShapes=umlLifeline;portConstraint=eastwest;newEdgeStyle={&quot;curved&quot;:0,&quot;rounded&quot;:0};" parent="WATYZbPXumTt0jwoAOc6-112" vertex="1">
          <mxGeometry x="45" y="100" width="10" height="160" as="geometry" />
        </mxCell>
        <mxCell id="WATYZbPXumTt0jwoAOc6-114" value="PostgresConfig" style="shape=umlLifeline;perimeter=lifelinePerimeter;whiteSpace=wrap;html=1;container=1;dropTarget=0;collapsible=0;recursiveResize=0;outlineConnect=0;portConstraint=eastwest;newEdgeStyle={&quot;curved&quot;:0,&quot;rounded&quot;:0};" parent="1" vertex="1">
          <mxGeometry x="1140" y="1530" width="100" height="550" as="geometry" />
        </mxCell>
        <mxCell id="WATYZbPXumTt0jwoAOc6-115" value="Database" style="shape=umlLifeline;perimeter=lifelinePerimeter;whiteSpace=wrap;html=1;container=1;dropTarget=0;collapsible=0;recursiveResize=0;outlineConnect=0;portConstraint=eastwest;newEdgeStyle={&quot;curved&quot;:0,&quot;rounded&quot;:0};" parent="1" vertex="1">
          <mxGeometry x="1270" y="1530" width="100" height="620" as="geometry" />
        </mxCell>
        <mxCell id="WATYZbPXumTt0jwoAOc6-116" value="" style="html=1;points=[[0,0,0,0,5],[0,1,0,0,-5],[1,0,0,0,5],[1,1,0,0,-5]];perimeter=orthogonalPerimeter;outlineConnect=0;targetShapes=umlLifeline;portConstraint=eastwest;newEdgeStyle={&quot;curved&quot;:0,&quot;rounded&quot;:0};" parent="WATYZbPXumTt0jwoAOc6-115" vertex="1">
          <mxGeometry x="50" y="180" width="10" height="380" as="geometry" />
        </mxCell>
        <mxCell id="WATYZbPXumTt0jwoAOc6-117" value="getFolloweesByFollowerId(followerId, followeeId)" style="html=1;verticalAlign=bottom;endArrow=block;curved=0;rounded=0;" parent="1" edge="1" source="WATYZbPXumTt0jwoAOc6-105">
          <mxGeometry width="80" relative="1" as="geometry">
            <mxPoint x="89.66666666666674" y="1600" as="sourcePoint" />
            <mxPoint x="289.5000000000002" y="1600" as="targetPoint" />
          </mxGeometry>
        </mxCell>
        <mxCell id="WATYZbPXumTt0jwoAOc6-118" value="getRepository(Follows)" style="html=1;verticalAlign=bottom;endArrow=block;curved=0;rounded=0;" parent="1" edge="1">
          <mxGeometry width="80" relative="1" as="geometry">
            <mxPoint x="290" y="1610" as="sourcePoint" />
            <mxPoint x="549.5000000000002" y="1610" as="targetPoint" />
          </mxGeometry>
        </mxCell>
        <mxCell id="WATYZbPXumTt0jwoAOc6-119" value="getConnection(DbType)" style="html=1;verticalAlign=bottom;endArrow=block;curved=0;rounded=0;" parent="1" edge="1">
          <mxGeometry width="80" relative="1" as="geometry">
            <mxPoint x="550" y="1620" as="sourcePoint" />
            <mxPoint x="729.5" y="1620" as="targetPoint" />
          </mxGeometry>
        </mxCell>
        <mxCell id="WATYZbPXumTt0jwoAOc6-120" value="getConnection(dbType)" style="html=1;verticalAlign=bottom;endArrow=block;curved=0;rounded=0;" parent="1" edge="1">
          <mxGeometry width="80" relative="1" as="geometry">
            <mxPoint x="730" y="1640" as="sourcePoint" />
            <mxPoint x="889.5" y="1640" as="targetPoint" />
          </mxGeometry>
        </mxCell>
        <mxCell id="WATYZbPXumTt0jwoAOc6-121" value="PostgresConnection" style="shape=umlLifeline;perimeter=lifelinePerimeter;whiteSpace=wrap;html=1;container=1;dropTarget=0;collapsible=0;recursiveResize=0;outlineConnect=0;portConstraint=eastwest;newEdgeStyle={&quot;curved&quot;:0,&quot;rounded&quot;:0};" parent="1" vertex="1">
          <mxGeometry x="1010" y="1530" width="110" height="560" as="geometry" />
        </mxCell>
        <mxCell id="WATYZbPXumTt0jwoAOc6-122" value="" style="html=1;points=[[0,0,0,0,5],[0,1,0,0,-5],[1,0,0,0,5],[1,1,0,0,-5]];perimeter=orthogonalPerimeter;outlineConnect=0;targetShapes=umlLifeline;portConstraint=eastwest;newEdgeStyle={&quot;curved&quot;:0,&quot;rounded&quot;:0};" parent="WATYZbPXumTt0jwoAOc6-121" vertex="1">
          <mxGeometry x="50" y="120" width="10" height="120" as="geometry" />
        </mxCell>
        <mxCell id="WATYZbPXumTt0jwoAOc6-123" value="PostgresConnection.Instance" style="html=1;verticalAlign=bottom;endArrow=block;curved=0;rounded=0;" parent="1" target="WATYZbPXumTt0jwoAOc6-121" edge="1">
          <mxGeometry width="80" relative="1" as="geometry">
            <mxPoint x="890" y="1660" as="sourcePoint" />
            <mxPoint x="970" y="1660" as="targetPoint" />
          </mxGeometry>
        </mxCell>
        <mxCell id="WATYZbPXumTt0jwoAOc6-124" value="dbDonfig()" style="html=1;verticalAlign=bottom;endArrow=block;curved=0;rounded=0;" parent="1" edge="1">
          <mxGeometry width="80" relative="1" as="geometry">
            <mxPoint x="1064.5909090909095" y="1679.55" as="sourcePoint" />
            <mxPoint x="1189.5" y="1679.55" as="targetPoint" />
          </mxGeometry>
        </mxCell>
        <mxCell id="WATYZbPXumTt0jwoAOc6-125" value="connect to Postgress database" style="html=1;verticalAlign=bottom;endArrow=block;curved=0;rounded=0;" parent="1" target="WATYZbPXumTt0jwoAOc6-115" edge="1">
          <mxGeometry width="80" relative="1" as="geometry">
            <mxPoint x="1070" y="1710" as="sourcePoint" />
            <mxPoint x="1150" y="1710" as="targetPoint" />
          </mxGeometry>
        </mxCell>
        <mxCell id="WATYZbPXumTt0jwoAOc6-126" value="connection successful" style="html=1;verticalAlign=bottom;endArrow=open;dashed=1;endSize=8;curved=0;rounded=0;" parent="1" edge="1">
          <mxGeometry relative="1" as="geometry">
            <mxPoint x="1320" y="1740" as="sourcePoint" />
            <mxPoint x="1064.5909090909095" y="1740" as="targetPoint" />
          </mxGeometry>
        </mxCell>
        <mxCell id="WATYZbPXumTt0jwoAOc6-127" value="Postgress Connection" style="html=1;verticalAlign=bottom;endArrow=open;dashed=1;endSize=8;curved=0;rounded=0;" parent="1" target="WATYZbPXumTt0jwoAOc6-112" edge="1">
          <mxGeometry relative="1" as="geometry">
            <mxPoint x="1060" y="1760" as="sourcePoint" />
            <mxPoint x="980" y="1760" as="targetPoint" />
          </mxGeometry>
        </mxCell>
        <mxCell id="WATYZbPXumTt0jwoAOc6-128" value="Postgress Connection" style="html=1;verticalAlign=bottom;endArrow=open;dashed=1;endSize=8;curved=0;rounded=0;" parent="1" target="WATYZbPXumTt0jwoAOc6-110" edge="1">
          <mxGeometry relative="1" as="geometry">
            <mxPoint x="890" y="1790" as="sourcePoint" />
            <mxPoint x="810" y="1790" as="targetPoint" />
          </mxGeometry>
        </mxCell>
        <mxCell id="WATYZbPXumTt0jwoAOc6-129" value="Postgress Connection" style="html=1;verticalAlign=bottom;endArrow=open;dashed=1;endSize=8;curved=0;rounded=0;" parent="1" edge="1">
          <mxGeometry relative="1" as="geometry">
            <mxPoint x="729.5" y="1810" as="sourcePoint" />
            <mxPoint x="549.5909090909095" y="1810" as="targetPoint" />
          </mxGeometry>
        </mxCell>
        <mxCell id="WATYZbPXumTt0jwoAOc6-130" value="repository" style="html=1;verticalAlign=bottom;endArrow=open;dashed=1;endSize=8;curved=0;rounded=0;" parent="1" target="WATYZbPXumTt0jwoAOc6-106" edge="1">
          <mxGeometry relative="1" as="geometry">
            <mxPoint x="550" y="1840" as="sourcePoint" />
            <mxPoint x="470" y="1840" as="targetPoint" />
          </mxGeometry>
        </mxCell>
        <mxCell id="WATYZbPXumTt0jwoAOc6-132" value="find(followerId)" style="html=1;verticalAlign=bottom;endArrow=block;curved=0;rounded=0;" parent="1" target="WATYZbPXumTt0jwoAOc6-108" edge="1">
          <mxGeometry width="80" relative="1" as="geometry">
            <mxPoint x="290" y="1930" as="sourcePoint" />
            <mxPoint x="370" y="1930" as="targetPoint" />
          </mxGeometry>
        </mxCell>
        <mxCell id="WATYZbPXumTt0jwoAOc6-133" value="find into database" style="html=1;verticalAlign=bottom;endArrow=block;curved=0;rounded=0;" parent="1" target="WATYZbPXumTt0jwoAOc6-115" edge="1">
          <mxGeometry x="0.0916" width="80" relative="1" as="geometry">
            <mxPoint x="550" y="1960" as="sourcePoint" />
            <mxPoint x="630" y="1960" as="targetPoint" />
            <mxPoint as="offset" />
          </mxGeometry>
        </mxCell>
        <mxCell id="N_akVuvBrmB0-ZIALPNC-1" value="" style="shape=umlLifeline;perimeter=lifelinePerimeter;whiteSpace=wrap;html=1;container=1;dropTarget=0;collapsible=0;recursiveResize=0;outlineConnect=0;portConstraint=eastwest;newEdgeStyle={&quot;curved&quot;:0,&quot;rounded&quot;:0};participant=umlActor;" vertex="1" parent="1">
          <mxGeometry x="20" y="2190" width="20" height="610" as="geometry" />
        </mxCell>
        <mxCell id="N_akVuvBrmB0-ZIALPNC-3" value="PostgresBase" style="shape=umlLifeline;perimeter=lifelinePerimeter;whiteSpace=wrap;html=1;container=1;dropTarget=0;collapsible=0;recursiveResize=0;outlineConnect=0;portConstraint=eastwest;newEdgeStyle={&quot;curved&quot;:0,&quot;rounded&quot;:0};" vertex="1" parent="1">
          <mxGeometry x="510" y="2200" width="100" height="640" as="geometry" />
        </mxCell>
        <mxCell id="N_akVuvBrmB0-ZIALPNC-4" value="" style="html=1;points=[[0,0,0,0,5],[0,1,0,0,-5],[1,0,0,0,5],[1,1,0,0,-5]];perimeter=orthogonalPerimeter;outlineConnect=0;targetShapes=umlLifeline;portConstraint=eastwest;newEdgeStyle={&quot;curved&quot;:0,&quot;rounded&quot;:0};" vertex="1" parent="N_akVuvBrmB0-ZIALPNC-3">
          <mxGeometry x="45" y="70" width="10" height="500" as="geometry" />
        </mxCell>
        <mxCell id="N_akVuvBrmB0-ZIALPNC-5" value="Base" style="shape=umlLifeline;perimeter=lifelinePerimeter;whiteSpace=wrap;html=1;container=1;dropTarget=0;collapsible=0;recursiveResize=0;outlineConnect=0;portConstraint=eastwest;newEdgeStyle={&quot;curved&quot;:0,&quot;rounded&quot;:0};" vertex="1" parent="1">
          <mxGeometry x="690" y="2200" width="100" height="570" as="geometry" />
        </mxCell>
        <mxCell id="N_akVuvBrmB0-ZIALPNC-6" value="" style="html=1;points=[[0,0,0,0,5],[0,1,0,0,-5],[1,0,0,0,5],[1,1,0,0,-5]];perimeter=orthogonalPerimeter;outlineConnect=0;targetShapes=umlLifeline;portConstraint=eastwest;newEdgeStyle={&quot;curved&quot;:0,&quot;rounded&quot;:0};" vertex="1" parent="N_akVuvBrmB0-ZIALPNC-5">
          <mxGeometry x="45" y="70" width="10" height="230" as="geometry" />
        </mxCell>
        <mxCell id="N_akVuvBrmB0-ZIALPNC-7" value="DatabaseFactory" style="shape=umlLifeline;perimeter=lifelinePerimeter;whiteSpace=wrap;html=1;container=1;dropTarget=0;collapsible=0;recursiveResize=0;outlineConnect=0;portConstraint=eastwest;newEdgeStyle={&quot;curved&quot;:0,&quot;rounded&quot;:0};" vertex="1" parent="1">
          <mxGeometry x="850" y="2200" width="100" height="550" as="geometry" />
        </mxCell>
        <mxCell id="N_akVuvBrmB0-ZIALPNC-8" value="" style="html=1;points=[[0,0,0,0,5],[0,1,0,0,-5],[1,0,0,0,5],[1,1,0,0,-5]];perimeter=orthogonalPerimeter;outlineConnect=0;targetShapes=umlLifeline;portConstraint=eastwest;newEdgeStyle={&quot;curved&quot;:0,&quot;rounded&quot;:0};" vertex="1" parent="N_akVuvBrmB0-ZIALPNC-7">
          <mxGeometry x="45" y="100" width="10" height="160" as="geometry" />
        </mxCell>
        <mxCell id="N_akVuvBrmB0-ZIALPNC-9" value="PostgresConfig" style="shape=umlLifeline;perimeter=lifelinePerimeter;whiteSpace=wrap;html=1;container=1;dropTarget=0;collapsible=0;recursiveResize=0;outlineConnect=0;portConstraint=eastwest;newEdgeStyle={&quot;curved&quot;:0,&quot;rounded&quot;:0};" vertex="1" parent="1">
          <mxGeometry x="1150" y="2200" width="100" height="550" as="geometry" />
        </mxCell>
        <mxCell id="N_akVuvBrmB0-ZIALPNC-10" value="Database" style="shape=umlLifeline;perimeter=lifelinePerimeter;whiteSpace=wrap;html=1;container=1;dropTarget=0;collapsible=0;recursiveResize=0;outlineConnect=0;portConstraint=eastwest;newEdgeStyle={&quot;curved&quot;:0,&quot;rounded&quot;:0};" vertex="1" parent="1">
          <mxGeometry x="1280" y="2200" width="100" height="640" as="geometry" />
        </mxCell>
        <mxCell id="N_akVuvBrmB0-ZIALPNC-11" value="" style="html=1;points=[[0,0,0,0,5],[0,1,0,0,-5],[1,0,0,0,5],[1,1,0,0,-5]];perimeter=orthogonalPerimeter;outlineConnect=0;targetShapes=umlLifeline;portConstraint=eastwest;newEdgeStyle={&quot;curved&quot;:0,&quot;rounded&quot;:0};" vertex="1" parent="N_akVuvBrmB0-ZIALPNC-10">
          <mxGeometry x="50" y="180" width="10" height="380" as="geometry" />
        </mxCell>
        <mxCell id="N_akVuvBrmB0-ZIALPNC-12" value="getFollowersByFolloweeId(followerId, followeeId)" style="html=1;verticalAlign=bottom;endArrow=block;curved=0;rounded=0;" edge="1" source="N_akVuvBrmB0-ZIALPNC-1" parent="1">
          <mxGeometry width="80" relative="1" as="geometry">
            <mxPoint x="99.66666666666674" y="2270" as="sourcePoint" />
            <mxPoint x="299.5000000000002" y="2270" as="targetPoint" />
          </mxGeometry>
        </mxCell>
        <mxCell id="N_akVuvBrmB0-ZIALPNC-13" value="getRepository(Follows)" style="html=1;verticalAlign=bottom;endArrow=block;curved=0;rounded=0;" edge="1" parent="1">
          <mxGeometry width="80" relative="1" as="geometry">
            <mxPoint x="300" y="2280" as="sourcePoint" />
            <mxPoint x="559.5000000000002" y="2280" as="targetPoint" />
          </mxGeometry>
        </mxCell>
        <mxCell id="N_akVuvBrmB0-ZIALPNC-14" value="getConnection(DbType)" style="html=1;verticalAlign=bottom;endArrow=block;curved=0;rounded=0;" edge="1" parent="1">
          <mxGeometry width="80" relative="1" as="geometry">
            <mxPoint x="560" y="2290" as="sourcePoint" />
            <mxPoint x="739.5" y="2290" as="targetPoint" />
          </mxGeometry>
        </mxCell>
        <mxCell id="N_akVuvBrmB0-ZIALPNC-15" value="getConnection(dbType)" style="html=1;verticalAlign=bottom;endArrow=block;curved=0;rounded=0;" edge="1" parent="1">
          <mxGeometry width="80" relative="1" as="geometry">
            <mxPoint x="740" y="2310" as="sourcePoint" />
            <mxPoint x="899.5" y="2310" as="targetPoint" />
          </mxGeometry>
        </mxCell>
        <mxCell id="N_akVuvBrmB0-ZIALPNC-16" value="PostgresConnection" style="shape=umlLifeline;perimeter=lifelinePerimeter;whiteSpace=wrap;html=1;container=1;dropTarget=0;collapsible=0;recursiveResize=0;outlineConnect=0;portConstraint=eastwest;newEdgeStyle={&quot;curved&quot;:0,&quot;rounded&quot;:0};" vertex="1" parent="1">
          <mxGeometry x="1020" y="2200" width="110" height="560" as="geometry" />
        </mxCell>
        <mxCell id="N_akVuvBrmB0-ZIALPNC-17" value="" style="html=1;points=[[0,0,0,0,5],[0,1,0,0,-5],[1,0,0,0,5],[1,1,0,0,-5]];perimeter=orthogonalPerimeter;outlineConnect=0;targetShapes=umlLifeline;portConstraint=eastwest;newEdgeStyle={&quot;curved&quot;:0,&quot;rounded&quot;:0};" vertex="1" parent="N_akVuvBrmB0-ZIALPNC-16">
          <mxGeometry x="50" y="120" width="10" height="120" as="geometry" />
        </mxCell>
        <mxCell id="N_akVuvBrmB0-ZIALPNC-18" value="PostgresConnection.Instance" style="html=1;verticalAlign=bottom;endArrow=block;curved=0;rounded=0;" edge="1" target="N_akVuvBrmB0-ZIALPNC-16" parent="1">
          <mxGeometry width="80" relative="1" as="geometry">
            <mxPoint x="900" y="2330" as="sourcePoint" />
            <mxPoint x="980" y="2330" as="targetPoint" />
          </mxGeometry>
        </mxCell>
        <mxCell id="N_akVuvBrmB0-ZIALPNC-19" value="dbDonfig()" style="html=1;verticalAlign=bottom;endArrow=block;curved=0;rounded=0;" edge="1" parent="1">
          <mxGeometry width="80" relative="1" as="geometry">
            <mxPoint x="1074.5909090909095" y="2349.55" as="sourcePoint" />
            <mxPoint x="1199.5" y="2349.55" as="targetPoint" />
          </mxGeometry>
        </mxCell>
        <mxCell id="N_akVuvBrmB0-ZIALPNC-20" value="connect to Postgress database" style="html=1;verticalAlign=bottom;endArrow=block;curved=0;rounded=0;" edge="1" target="N_akVuvBrmB0-ZIALPNC-10" parent="1">
          <mxGeometry width="80" relative="1" as="geometry">
            <mxPoint x="1080" y="2380" as="sourcePoint" />
            <mxPoint x="1160" y="2380" as="targetPoint" />
          </mxGeometry>
        </mxCell>
        <mxCell id="N_akVuvBrmB0-ZIALPNC-21" value="connection successful" style="html=1;verticalAlign=bottom;endArrow=open;dashed=1;endSize=8;curved=0;rounded=0;" edge="1" parent="1">
          <mxGeometry relative="1" as="geometry">
            <mxPoint x="1330" y="2410" as="sourcePoint" />
            <mxPoint x="1074.5909090909095" y="2410" as="targetPoint" />
          </mxGeometry>
        </mxCell>
        <mxCell id="N_akVuvBrmB0-ZIALPNC-22" value="Postgress Connection" style="html=1;verticalAlign=bottom;endArrow=open;dashed=1;endSize=8;curved=0;rounded=0;" edge="1" target="N_akVuvBrmB0-ZIALPNC-7" parent="1">
          <mxGeometry relative="1" as="geometry">
            <mxPoint x="1070" y="2430" as="sourcePoint" />
            <mxPoint x="990" y="2430" as="targetPoint" />
          </mxGeometry>
        </mxCell>
        <mxCell id="N_akVuvBrmB0-ZIALPNC-23" value="Postgress Connection" style="html=1;verticalAlign=bottom;endArrow=open;dashed=1;endSize=8;curved=0;rounded=0;" edge="1" target="N_akVuvBrmB0-ZIALPNC-5" parent="1">
          <mxGeometry relative="1" as="geometry">
            <mxPoint x="900" y="2460" as="sourcePoint" />
            <mxPoint x="820" y="2460" as="targetPoint" />
          </mxGeometry>
        </mxCell>
        <mxCell id="N_akVuvBrmB0-ZIALPNC-24" value="Postgress Connection" style="html=1;verticalAlign=bottom;endArrow=open;dashed=1;endSize=8;curved=0;rounded=0;" edge="1" parent="1">
          <mxGeometry relative="1" as="geometry">
            <mxPoint x="739.5" y="2480" as="sourcePoint" />
            <mxPoint x="559.5909090909095" y="2480" as="targetPoint" />
          </mxGeometry>
        </mxCell>
        <mxCell id="N_akVuvBrmB0-ZIALPNC-25" value="repository" style="html=1;verticalAlign=bottom;endArrow=open;dashed=1;endSize=8;curved=0;rounded=0;" edge="1" parent="1">
          <mxGeometry relative="1" as="geometry">
            <mxPoint x="560" y="2510" as="sourcePoint" />
            <mxPoint x="299" y="2510" as="targetPoint" />
          </mxGeometry>
        </mxCell>
        <mxCell id="N_akVuvBrmB0-ZIALPNC-26" value="find()" style="html=1;verticalAlign=bottom;endArrow=block;curved=0;rounded=0;" edge="1" target="N_akVuvBrmB0-ZIALPNC-3" parent="1">
          <mxGeometry width="80" relative="1" as="geometry">
            <mxPoint x="300" y="2600" as="sourcePoint" />
            <mxPoint x="380" y="2600" as="targetPoint" />
          </mxGeometry>
        </mxCell>
        <mxCell id="N_akVuvBrmB0-ZIALPNC-27" value="find into database" style="html=1;verticalAlign=bottom;endArrow=block;curved=0;rounded=0;" edge="1" target="N_akVuvBrmB0-ZIALPNC-10" parent="1">
          <mxGeometry x="0.0916" width="80" relative="1" as="geometry">
            <mxPoint x="560" y="2630" as="sourcePoint" />
            <mxPoint x="640" y="2630" as="targetPoint" />
            <mxPoint as="offset" />
          </mxGeometry>
        </mxCell>
        <mxCell id="N_akVuvBrmB0-ZIALPNC-28" value="result" style="html=1;verticalAlign=bottom;endArrow=open;dashed=1;endSize=8;curved=0;rounded=0;" edge="1" parent="1">
          <mxGeometry x="-0.0655" relative="1" as="geometry">
            <mxPoint x="1330" y="2670" as="sourcePoint" />
            <mxPoint x="560" y="2670" as="targetPoint" />
            <mxPoint as="offset" />
          </mxGeometry>
        </mxCell>
        <mxCell id="N_akVuvBrmB0-ZIALPNC-35" value="alt" style="shape=umlFrame;whiteSpace=wrap;html=1;pointerEvents=0;recursiveResize=0;container=1;collapsible=0;width=160;" vertex="1" parent="1">
          <mxGeometry x="35" y="500" width="1320" height="290" as="geometry" />
        </mxCell>
        <mxCell id="WATYZbPXumTt0jwoAOc6-30" value="saved" style="html=1;verticalAlign=bottom;endArrow=open;dashed=1;endSize=8;curved=0;rounded=0;" parent="N_akVuvBrmB0-ZIALPNC-35" edge="1">
          <mxGeometry relative="1" as="geometry">
            <mxPoint x="500" y="30" as="sourcePoint" />
            <mxPoint x="239.16666666666674" y="30" as="targetPoint" />
          </mxGeometry>
        </mxCell>
        <mxCell id="WATYZbPXumTt0jwoAOc6-31" value="followeeId" style="html=1;verticalAlign=bottom;endArrow=open;dashed=1;endSize=8;curved=0;rounded=0;" parent="N_akVuvBrmB0-ZIALPNC-35" edge="1">
          <mxGeometry relative="1" as="geometry">
            <mxPoint x="240" y="49" as="sourcePoint" />
            <mxPoint x="39.16666666666674" y="49" as="targetPoint" />
          </mxGeometry>
        </mxCell>
        <mxCell id="N_akVuvBrmB0-ZIALPNC-37" value="alt" style="shape=umlFrame;whiteSpace=wrap;html=1;pointerEvents=0;recursiveResize=0;container=1;collapsible=0;width=160;" vertex="1" parent="N_akVuvBrmB0-ZIALPNC-35">
          <mxGeometry x="15" y="100" width="1295" height="180" as="geometry" />
        </mxCell>
        <mxCell id="N_akVuvBrmB0-ZIALPNC-38" value="ex.code = 23505" style="html=1;verticalAlign=bottom;endArrow=open;dashed=1;endSize=8;curved=0;rounded=0;" edge="1" parent="N_akVuvBrmB0-ZIALPNC-37" target="WATYZbPXumTt0jwoAOc6-3">
          <mxGeometry relative="1" as="geometry">
            <mxPoint x="1250" y="40" as="sourcePoint" />
            <mxPoint x="1170" y="40" as="targetPoint" />
          </mxGeometry>
        </mxCell>
        <mxCell id="N_akVuvBrmB0-ZIALPNC-39" value="ex.code = 23505" style="html=1;verticalAlign=bottom;endArrow=open;dashed=1;endSize=8;curved=0;rounded=0;" edge="1" parent="N_akVuvBrmB0-ZIALPNC-37" target="WATYZbPXumTt0jwoAOc6-2">
          <mxGeometry relative="1" as="geometry">
            <mxPoint x="480" y="60" as="sourcePoint" />
            <mxPoint x="400" y="60" as="targetPoint" />
          </mxGeometry>
        </mxCell>
        <mxCell id="N_akVuvBrmB0-ZIALPNC-40" value="ERROR_DUPLICATE_FOLLOW" style="html=1;verticalAlign=bottom;endArrow=open;dashed=1;endSize=8;curved=0;rounded=0;" edge="1" parent="N_akVuvBrmB0-ZIALPNC-37" target="WATYZbPXumTt0jwoAOc6-1">
          <mxGeometry relative="1" as="geometry">
            <mxPoint x="220" y="80" as="sourcePoint" />
            <mxPoint x="140" y="80" as="targetPoint" />
          </mxGeometry>
        </mxCell>
        <mxCell id="N_akVuvBrmB0-ZIALPNC-42" value="" style="endArrow=none;startArrow=none;endFill=0;startFill=0;endSize=8;html=1;verticalAlign=bottom;dashed=1;labelBackgroundColor=none;dashPattern=10 10;rounded=0;" edge="1" parent="N_akVuvBrmB0-ZIALPNC-37">
          <mxGeometry width="160" relative="1" as="geometry">
            <mxPoint y="100" as="sourcePoint" />
            <mxPoint x="1296" y="100" as="targetPoint" />
          </mxGeometry>
        </mxCell>
        <mxCell id="N_akVuvBrmB0-ZIALPNC-43" value="database error" style="html=1;verticalAlign=bottom;endArrow=open;dashed=1;endSize=8;curved=0;rounded=0;" edge="1" parent="N_akVuvBrmB0-ZIALPNC-37" target="WATYZbPXumTt0jwoAOc6-3">
          <mxGeometry relative="1" as="geometry">
            <mxPoint x="1250" y="130" as="sourcePoint" />
            <mxPoint x="1160" y="130" as="targetPoint" />
          </mxGeometry>
        </mxCell>
        <mxCell id="N_akVuvBrmB0-ZIALPNC-75" value="database error" style="html=1;verticalAlign=bottom;endArrow=open;dashed=1;endSize=8;curved=0;rounded=0;" edge="1" parent="N_akVuvBrmB0-ZIALPNC-37" target="WATYZbPXumTt0jwoAOc6-2">
          <mxGeometry relative="1" as="geometry">
            <mxPoint x="480" y="140" as="sourcePoint" />
            <mxPoint x="400" y="140" as="targetPoint" />
          </mxGeometry>
        </mxCell>
        <mxCell id="N_akVuvBrmB0-ZIALPNC-76" value="ERROR_FOLLOW" style="html=1;verticalAlign=bottom;endArrow=open;dashed=1;endSize=8;curved=0;rounded=0;" edge="1" parent="N_akVuvBrmB0-ZIALPNC-37" target="WATYZbPXumTt0jwoAOc6-1">
          <mxGeometry relative="1" as="geometry">
            <mxPoint x="220" y="150" as="sourcePoint" />
            <mxPoint x="140" y="150" as="targetPoint" />
          </mxGeometry>
        </mxCell>
        <mxCell id="N_akVuvBrmB0-ZIALPNC-36" value="" style="endArrow=none;startArrow=none;endFill=0;startFill=0;endSize=8;html=1;verticalAlign=bottom;dashed=1;labelBackgroundColor=none;dashPattern=10 10;rounded=0;entryX=1;entryY=0.263;entryDx=0;entryDy=0;entryPerimeter=0;" edge="1" parent="1" target="N_akVuvBrmB0-ZIALPNC-35">
          <mxGeometry width="160" relative="1" as="geometry">
            <mxPoint x="30" y="580" as="sourcePoint" />
            <mxPoint x="190" y="570" as="targetPoint" />
          </mxGeometry>
        </mxCell>
        <mxCell id="N_akVuvBrmB0-ZIALPNC-80" value="alt" style="shape=umlFrame;whiteSpace=wrap;html=1;pointerEvents=0;recursiveResize=0;container=1;collapsible=0;width=160;" vertex="1" parent="1">
          <mxGeometry x="10" y="1970" width="1350" height="180" as="geometry" />
        </mxCell>
        <mxCell id="WATYZbPXumTt0jwoAOc6-134" value="result" style="html=1;verticalAlign=bottom;endArrow=open;dashed=1;endSize=8;curved=0;rounded=0;" parent="N_akVuvBrmB0-ZIALPNC-80" edge="1">
          <mxGeometry x="-0.0655" relative="1" as="geometry">
            <mxPoint x="1305.61" y="20" as="sourcePoint" />
            <mxPoint x="550" y="20" as="targetPoint" />
            <mxPoint as="offset" />
          </mxGeometry>
        </mxCell>
        <mxCell id="WATYZbPXumTt0jwoAOc6-135" value="result" style="html=1;verticalAlign=bottom;endArrow=open;dashed=1;endSize=8;curved=0;rounded=0;" parent="N_akVuvBrmB0-ZIALPNC-80" edge="1">
          <mxGeometry relative="1" as="geometry">
            <mxPoint x="545" y="40" as="sourcePoint" />
            <mxPoint x="284.38888888888914" y="40" as="targetPoint" />
          </mxGeometry>
        </mxCell>
        <mxCell id="WATYZbPXumTt0jwoAOc6-136" value="followees by follower id" style="html=1;verticalAlign=bottom;endArrow=open;dashed=1;endSize=8;curved=0;rounded=0;" parent="N_akVuvBrmB0-ZIALPNC-80" edge="1">
          <mxGeometry relative="1" as="geometry">
            <mxPoint x="280" y="60" as="sourcePoint" />
            <mxPoint x="9.388888888889142" y="60" as="targetPoint" />
          </mxGeometry>
        </mxCell>
        <mxCell id="N_akVuvBrmB0-ZIALPNC-81" value="" style="endArrow=none;startArrow=none;endFill=0;startFill=0;endSize=8;html=1;verticalAlign=bottom;dashed=1;labelBackgroundColor=none;dashPattern=10 10;rounded=0;entryX=0.997;entryY=0.501;entryDx=0;entryDy=0;entryPerimeter=0;" edge="1" parent="N_akVuvBrmB0-ZIALPNC-80" target="N_akVuvBrmB0-ZIALPNC-80">
          <mxGeometry width="160" relative="1" as="geometry">
            <mxPoint x="10" y="90" as="sourcePoint" />
            <mxPoint x="170" y="90" as="targetPoint" />
          </mxGeometry>
        </mxCell>
        <mxCell id="N_akVuvBrmB0-ZIALPNC-83" value="database error" style="html=1;verticalAlign=bottom;endArrow=open;dashed=1;endSize=8;curved=0;rounded=0;" edge="1" parent="N_akVuvBrmB0-ZIALPNC-80" target="WATYZbPXumTt0jwoAOc6-106">
          <mxGeometry relative="1" as="geometry">
            <mxPoint x="540" y="130" as="sourcePoint" />
            <mxPoint x="460" y="130" as="targetPoint" />
          </mxGeometry>
        </mxCell>
        <mxCell id="N_akVuvBrmB0-ZIALPNC-84" value="getFollowers Error" style="html=1;verticalAlign=bottom;endArrow=open;dashed=1;endSize=8;curved=0;rounded=0;" edge="1" parent="N_akVuvBrmB0-ZIALPNC-80" target="WATYZbPXumTt0jwoAOc6-105">
          <mxGeometry relative="1" as="geometry">
            <mxPoint x="280" y="150" as="sourcePoint" />
            <mxPoint x="200" y="150" as="targetPoint" />
          </mxGeometry>
        </mxCell>
        <mxCell id="N_akVuvBrmB0-ZIALPNC-82" value="database error" style="html=1;verticalAlign=bottom;endArrow=open;dashed=1;endSize=8;curved=0;rounded=0;exitX=0.5;exitY=0.887;exitDx=0;exitDy=0;exitPerimeter=0;" edge="1" parent="1" source="WATYZbPXumTt0jwoAOc6-115" target="WATYZbPXumTt0jwoAOc6-109">
          <mxGeometry relative="1" as="geometry">
            <mxPoint x="1310" y="2080" as="sourcePoint" />
            <mxPoint x="1230" y="2080" as="targetPoint" />
          </mxGeometry>
        </mxCell>
        <mxCell id="N_akVuvBrmB0-ZIALPNC-85" value="alt" style="shape=umlFrame;whiteSpace=wrap;html=1;pointerEvents=0;recursiveResize=0;container=1;collapsible=0;width=160;" vertex="1" parent="1">
          <mxGeometry y="2650" width="1370" height="180" as="geometry" />
        </mxCell>
        <mxCell id="N_akVuvBrmB0-ZIALPNC-29" value="result" style="html=1;verticalAlign=bottom;endArrow=open;dashed=1;endSize=8;curved=0;rounded=0;" edge="1" parent="N_akVuvBrmB0-ZIALPNC-85">
          <mxGeometry relative="1" as="geometry">
            <mxPoint x="565" y="40" as="sourcePoint" />
            <mxPoint x="304" y="40" as="targetPoint" />
          </mxGeometry>
        </mxCell>
        <mxCell id="N_akVuvBrmB0-ZIALPNC-30" value="followers by followee Id" style="html=1;verticalAlign=bottom;endArrow=open;dashed=1;endSize=8;curved=0;rounded=0;" edge="1" parent="N_akVuvBrmB0-ZIALPNC-85">
          <mxGeometry relative="1" as="geometry">
            <mxPoint x="300.61" y="50" as="sourcePoint" />
            <mxPoint x="29.99888888888914" y="50" as="targetPoint" />
          </mxGeometry>
        </mxCell>
        <mxCell id="N_akVuvBrmB0-ZIALPNC-86" value="" style="endArrow=none;startArrow=none;endFill=0;startFill=0;endSize=8;html=1;verticalAlign=bottom;dashed=1;labelBackgroundColor=none;dashPattern=10 10;rounded=0;entryX=0.999;entryY=0.482;entryDx=0;entryDy=0;entryPerimeter=0;" edge="1" parent="N_akVuvBrmB0-ZIALPNC-85">
          <mxGeometry width="160" relative="1" as="geometry">
            <mxPoint y="72.67999999999999" as="sourcePoint" />
            <mxPoint x="1368.63" y="69.99999999999976" as="targetPoint" />
          </mxGeometry>
        </mxCell>
        <mxCell id="N_akVuvBrmB0-ZIALPNC-90" value="database error" style="html=1;verticalAlign=bottom;endArrow=open;dashed=1;endSize=8;curved=0;rounded=0;" edge="1" parent="N_akVuvBrmB0-ZIALPNC-85" target="N_akVuvBrmB0-ZIALPNC-4">
          <mxGeometry relative="1" as="geometry">
            <mxPoint x="1330" y="100" as="sourcePoint" />
            <mxPoint x="1250" y="100" as="targetPoint" />
          </mxGeometry>
        </mxCell>
        <mxCell id="N_akVuvBrmB0-ZIALPNC-91" value="database error" style="html=1;verticalAlign=bottom;endArrow=open;dashed=1;endSize=8;curved=0;rounded=0;" edge="1" parent="N_akVuvBrmB0-ZIALPNC-85" target="N_akVuvBrmB0-ZIALPNC-87">
          <mxGeometry relative="1" as="geometry">
            <mxPoint x="560" y="110" as="sourcePoint" />
            <mxPoint x="480" y="110" as="targetPoint" />
          </mxGeometry>
        </mxCell>
        <mxCell id="N_akVuvBrmB0-ZIALPNC-87" value="FollowRepository" style="shape=umlLifeline;perimeter=lifelinePerimeter;whiteSpace=wrap;html=1;container=1;dropTarget=0;collapsible=0;recursiveResize=0;outlineConnect=0;portConstraint=eastwest;newEdgeStyle={&quot;curved&quot;:0,&quot;rounded&quot;:0};" vertex="1" parent="1">
          <mxGeometry x="250" y="2200" width="100" height="640" as="geometry" />
        </mxCell>
        <mxCell id="N_akVuvBrmB0-ZIALPNC-89" value="" style="html=1;points=[[0,0,0,0,5],[0,1,0,0,-5],[1,0,0,0,5],[1,1,0,0,-5]];perimeter=orthogonalPerimeter;outlineConnect=0;targetShapes=umlLifeline;portConstraint=eastwest;newEdgeStyle={&quot;curved&quot;:0,&quot;rounded&quot;:0};" vertex="1" parent="N_akVuvBrmB0-ZIALPNC-87">
          <mxGeometry x="45" y="60" width="10" height="530" as="geometry" />
        </mxCell>
        <mxCell id="N_akVuvBrmB0-ZIALPNC-92" value="getFollowees Error&amp;nbsp;" style="html=1;verticalAlign=bottom;endArrow=open;dashed=1;endSize=8;curved=0;rounded=0;exitX=0.064;exitY=0.978;exitDx=0;exitDy=0;exitPerimeter=0;" edge="1" parent="1" source="N_akVuvBrmB0-ZIALPNC-89" target="N_akVuvBrmB0-ZIALPNC-1">
          <mxGeometry relative="1" as="geometry">
            <mxPoint x="290" y="2780" as="sourcePoint" />
            <mxPoint x="210" y="2780" as="targetPoint" />
          </mxGeometry>
        </mxCell>
      </root>
    </mxGraphModel>
  </diagram>
</mxfile>
